<svg xmlns="http://www.w3.org/2000/svg" viewBox="0 0 247.06 249.3"><defs><style>.cls-1{fill:#c16c9e;}</style></defs><title>chabadorgachoslogo</title><g id="Layer_2" data-name="Layer 2"><g id="Layer_1-2" data-name="Layer 1"><path class="cls-1" d="M185.51,151.43,220,162.58c3.95,1.29,7.9,2.58,11.85,3.9,8.26,2.75,13.72,8.26,15,16.94,1.37,9.42-2.52,16.71-10.75,21.49q-37.59,21.84-75.28,43.51a6.32,6.32,0,0,1-4.48.72c-16.05-5.09-32-10.35-48-15.58a21.49,21.49,0,0,1-2-.94c1.44-.88,2.47-1.54,3.53-2.15q36.47-21,72.92-42.06c10.26-5.92,14.6-16.09,10.41-26C191.37,158.33,188,155,185.51,151.43Z"/><path class="cls-1" d="M71.53,193.47c-3.13,2.87-6.24,5.76-9.39,8.6-9.18,8.28-18.32,16.59-27.58,24.79-6.26,5.55-13.52,6.95-21.26,3.81C5.23,227.4.24,221.22.16,212.39-.09,182.7,0,153,.07,123.32a5.46,5.46,0,0,1,1.4-3.67C14,108.18,26.62,96.82,39.24,85.45a11.35,11.35,0,0,1,1.86-.93V88.9c0,28.07,0,56.15,0,84.22,0,8.18,3,14.65,10,18.88a19.6,19.6,0,0,0,17.27,1.79c.92-.33,1.87-.59,2.8-.88Z"/><path class="cls-1" d="M202,101.86c-1.87-1-3.07-1.63-4.23-2.3L125.87,57.91c-5.13-3-10.51-4.74-16.51-3.34-8.78,2-14,7.58-15.88,16.33A4.58,4.58,0,0,1,92,73.54c-.93-4.32-1.89-8.64-2.8-13C86.68,48.4,84.05,36.24,81.62,24c-2.79-14,11.24-27.11,25-23.41a30.45,30.45,0,0,1,7,3c24.24,13.89,48.41,27.9,72.69,41.71a10.53,10.53,0,0,1,5.66,7.9c3,14.79,6.31,29.51,9.5,44.26C201.69,98.68,201.78,99.9,202,101.86Z"/></g></g></svg>